<svg id="Layer" enable-background="new 0 0 64 64" height="512" viewBox="0 0 64 64" width="512" xmlns="http://www.w3.org/2000/svg"><path d="m32 24c-.552 0-1-.447-1-1 0-2.757-2.243-5-5-5h-7.27c-.351 0-.676-.184-.857-.484-.181-.301-.191-.674-.027-.983 2.786-5.264 8.21-8.533 14.154-8.533 5.883 0 11.256 3.202 14.067 8.37.14.172.223.392.223.63 0 .553-.448 1-1 1-.007 0-.013 0-.02 0h-7.27c-2.757 0-5 2.243-5 5 0 .553-.448 1-1 1z" fill="#cce4ff"/><path d="m19 56h-2c-.552 0-1-.447-1-1v-31c0-.553.448-1 1-1s1 .447 1 1c0 5.201 2.861 9.947 7.468 12.386.327.173.532.513.532.884v11.73c0 3.859-3.14 7-7 7z" fill="#cce4ff"/><g fill="#007aff"><path d="m46.202 16.661c-.016-.044-.038-.083-.06-.124-2.687-5.071-8.015-8.537-14.142-8.537s-11.455 3.466-14.142 8.537c-.022.041-1.858 2.88-1.858 7.463v31c0 .553.448 1 1 1h30c.552 0 1-.447 1-1s-.448-1-1-1h-5.104c3.66-2.303 6.104-6.367 6.104-11v-2c0-.553-.448-1-1-1s-1 .447-1 1v2c0 5.735-4.414 10.453-10.022 10.951 3.614-2.312 6.022-6.352 6.022-10.951v-2c0-.553-.448-1-1-1s-1 .447-1 1v2c0 6.065-4.935 11-11 11h-5.111c1.301-1.272 2.111-3.042 2.111-5v-10.178c1.855.754 3.878 1.178 6 1.178 6.02 0 11.269-3.345 14-8.271v3.271c0 .553.448 1 1 1s1-.447 1-1v-11c0-2.646-.656-5.138-1.798-7.339zm-14.202-6.661c4.745 0 8.94 2.378 11.473 6h-5.473c-2.543 0-4.774 1.363-6 3.397-1.226-2.034-3.457-3.397-6-3.397h-5.473c2.533-3.622 6.728-6 11.473-6zm-8 39c0 2.757-2.243 5-5 5h-1v-22.271c1.408 2.54 3.491 4.65 6 6.106zm8-11c-7.72 0-14-6.28-14-14 0-2.149.501-4.178 1.37-6h6.63c2.757 0 5 2.243 5 5v8c0 .553.448 1 1 1s1-.447 1-1v-8c0-2.757 2.243-5 5-5h6.63c.869 1.822 1.37 3.851 1.37 6 0 7.72-6.28 14-14 14z"/><circle cx="47" cy="38" r="1"/></g></svg>